# Blender 5.1.1
# www.blender.org
mtllib Untitled.mtl
o Moai
v -0.387906 -0.548490 -1.052528
v -0.157772 0.530953 -0.545650
v -0.168096 -0.387019 -1.723466
v -0.075784 0.666402 -0.928527
v 0.387906 -0.548490 -1.052528
v 0.157772 0.530953 -0.545650
v 0.168096 -0.387019 -1.723466
v 0.075771 0.666412 -0.928535
v -0.292320 -0.142092 -0.841861
v -0.140125 -0.138831 -1.437647
v 0.137438 -0.136782 -1.439219
v 0.295008 -0.137758 -0.845187
v -0.096457 -0.547231 -1.633411
v -0.196989 -0.639887 -1.173065
v 0.096457 -0.547231 -1.633411
v 0.196989 -0.639887 -1.173065
v 0.000000 -0.461566 1.209358
v -1.036639 -0.461562 0.618492
v -0.686884 -0.485889 -0.868344
v 0.000000 1.687974 -0.631837
v 0.000000 1.844755 -0.514975
v 0.000000 1.844755 0.722168
v 0.000000 1.687891 0.895891
v -0.548647 1.844755 0.420358
v -0.710805 1.687911 0.508869
v -0.548647 1.844755 -0.213165
v -0.710640 1.687953 -0.311800
v 0.000000 -1.547888 -1.273905
v 0.000000 -1.547887 1.273905
v -1.103234 -1.547888 0.636953
v -1.002689 -1.574044 -0.484191
v -0.801375 1.198251 -0.371077
v -0.736875 -0.019870 -0.771025
v 0.000000 1.294006 -0.712538
v 0.000000 0.666213 1.031042
v 0.000000 0.943496 0.988739
v -0.855979 0.666244 0.557504
v -0.812135 0.943492 0.542189
v -0.722819 0.960169 -0.610723
v -0.761099 0.711713 -0.646054
v 0.000000 0.680475 -1.081004
v 0.000000 0.991432 -1.007698
v -0.928338 -0.386342 -0.517639
v -0.654616 -0.930718 -1.222440
v 0.000000 0.563159 -0.781897
v -0.954808 0.563125 -0.435988
v 0.000000 -0.556562 -1.341985
v 0.000000 -0.930560 -1.624812
v 0.000000 -0.135502 -1.193134
v 1.036639 -0.461562 0.618492
v 0.686884 -0.485889 -0.868344
v 0.548647 1.844755 0.420358
v 0.710805 1.687911 0.508869
v 0.548647 1.844755 -0.213165
v 0.710640 1.687953 -0.311800
v 1.103234 -1.547888 0.636953
v 1.002689 -1.574044 -0.484191
v 0.801375 1.198251 -0.371077
v 0.736875 -0.019870 -0.771025
v 0.855979 0.666244 0.557504
v 0.812135 0.943492 0.542189
v 0.722819 0.960169 -0.610723
v 0.761099 0.711713 -0.646054
v 0.928338 -0.386342 -0.517639
v 0.654616 -0.930718 -1.222440
v 0.954808 0.563125 -0.435988
vn -0.9389 0.2758 -0.2061
vn -0.9525 0.2342 -0.1947
vn -0.6188 0.4705 -0.6291
vn -0.5874 0.5734 -0.5711
vn 0.6127 0.4736 -0.6327
vn 0.5796 0.5756 -0.5768
vn 0.9504 0.2384 -0.1998
vn 0.9372 0.2778 -0.2110
vn -0.5301 0.0616 -0.8457
vn 0.5287 0.0604 -0.8467
vn 0.2764 -0.7968 -0.5373
vn -0.2764 -0.7968 -0.5373
vn 0.9520 -0.0060 -0.3059
vn -0.9532 -0.0037 -0.3023
vn 0.4441 -0.8423 -0.3055
vn -0.4441 -0.8423 -0.3055
vn -0.0000 0.8944 0.4474
vn -0.3754 0.8978 0.2302
vn -0.7664 0.4423 0.4658
vn -0.0000 0.4239 0.9057
vn -0.3814 0.8897 -0.2511
vn -0.7523 0.4521 -0.4793
vn -0.0000 0.8717 -0.4900
vn -0.0000 0.4361 -0.8999
vn -0.8746 0.0902 0.4763
vn -0.9515 0.0668 -0.3004
vn -0.7042 -0.6553 -0.2735
vn -0.7232 -0.5790 0.3765
vn -0.0000 0.1012 0.9949
vn -0.0000 -0.5865 0.8099
vn -0.8344 0.1739 0.5230
vn -0.8531 0.3099 -0.4197
vn -0.9167 0.1122 -0.3836
vn -0.8431 0.1567 0.5144
vn -0.0000 0.1340 0.9910
vn -0.0000 0.1478 0.9890
vn -0.0000 -0.3111 -0.9504
vn -0.6082 -0.2581 -0.7507
vn -0.0000 -0.3262 -0.9453
vn -0.0000 0.4656 -0.8850
vn -0.6021 0.3742 -0.7053
vn -0.0000 0.4391 -0.8984
vn -0.7266 0.2057 -0.6556
vn -0.6789 0.0261 -0.7338
vn -0.0000 0.3284 -0.9445
vn -0.6168 0.2160 -0.7569
vn -0.0000 0.0266 -0.9996
vn -0.0000 -0.8012 -0.5984
vn -0.0000 0.4702 -0.8825
vn 0.7664 0.4423 0.4658
vn 0.3754 0.8978 0.2302
vn 0.7523 0.4521 -0.4793
vn 0.3814 0.8897 -0.2511
vn 0.8746 0.0902 0.4763
vn 0.7232 -0.5790 0.3765
vn 0.7042 -0.6553 -0.2735
vn 0.9515 0.0668 -0.3004
vn 0.8344 0.1739 0.5230
vn 0.8431 0.1567 0.5144
vn 0.9167 0.1122 -0.3836
vn 0.8531 0.3099 -0.4197
vn 0.6082 -0.2581 -0.7507
vn 0.6021 0.3742 -0.7053
vn 0.7266 0.2057 -0.6556
vn 0.6789 0.0261 -0.7338
vn 0.6168 0.2160 -0.7569
vt 0.034681 0.659978
vt 0.059120 0.561655
vt 0.098204 0.564778
vt 0.088703 0.696898
vt 0.118902 0.564615
vt 0.128290 0.696395
vt 0.158102 0.561589
vt 0.182086 0.659504
vt 0.087652 0.748869
vt 0.088925 0.803205
vt 0.064796 0.789429
vt 0.065285 0.763963
vt 0.131821 0.748176
vt 0.201681 0.717409
vt 0.015217 0.717481
vt 0.021872 0.806616
vt 0.021647 0.748947
vt 0.015217 0.839350
vt 0.638659 0.762382
vt 0.564739 0.702172
vt 0.581754 0.675225
vt 0.667764 0.747298
vt 0.464469 0.647487
vt 0.478636 0.616555
vt 0.347918 0.599774
vt 0.357732 0.576028
vt 0.669167 0.091443
vt 0.840832 0.091445
vt 0.798952 0.167573
vt 0.711046 0.167573
vt 0.760754 0.427897
vt 0.627477 0.353932
vt 0.724554 0.211204
vt 0.846897 0.302857
vt 0.889221 0.528730
vt 0.985270 0.409063
vt 0.643380 0.590121
vt 0.511728 0.554668
vt 0.559893 0.471855
vt 0.667390 0.558355
vt 0.743495 0.671724
vt 0.772340 0.643822
vt 0.430655 0.399594
vt 0.515633 0.477145
vt 0.415332 0.436667
vt 0.378711 0.525270
vt 0.500268 0.509526
vt 0.400095 0.473533
vt 0.587316 0.313243
vt 0.590823 0.235931
vt 0.470983 0.302023
vt 0.561913 0.374340
vt 0.514604 0.196482
vt 0.551998 0.106009
vt 0.492336 0.250358
vt 0.551601 0.921116
vt 0.409108 0.985221
vt 0.245393 0.917555
vt 0.553592 0.744386
vt 0.027213 0.509662
vt 0.017250 0.478430
vt 0.129047 0.488114
vt 0.122072 0.519210
vt 0.243496 0.519368
vt 0.231690 0.551277
vt 0.711047 0.015314
vt 0.798953 0.015314
vt 0.176900 0.186581
vt 0.204174 0.037210
vt 0.355526 0.058679
vt 0.323506 0.228296
vt 0.014730 0.167289
vt 0.031196 0.014730
vt 0.145489 0.384335
vt 0.150913 0.344887
vt 0.288112 0.359523
vt 0.263754 0.452177
vt 0.016976 0.371442
vt 0.016246 0.331317
vt 0.315722 0.394519
vt 0.303742 0.428298
vt 0.380675 0.227835
vt 0.432775 0.170608
vt 0.355529 0.289038
vt 0.401610 0.654168
vt 0.272747 0.742532
s 1
usemtl Material.001
f 9/1/1 2/2/2 4/3/3 10/4/4
f 10/4/4 4/3/3 8/5/5 11/6/6
f 11/6/6 8/5/5 6/7/7 12/8/8
f 3/9/9 7/10/10 15/11/11 13/12/12
f 7/13/10 11/6/6 12/8/8 5/14/13
f 3/9/9 10/4/4 11/6/6 7/13/10
f 1/15/14 9/1/1 10/4/4 3/9/9
f 13/12/12 15/11/11 16/16/15 14/17/16
f 1/15/14 3/9/9 13/12/12 14/17/16
f 7/10/10 5/18/13 16/16/15 15/11/11
f 22/19/17 24/20/18 25/21/19 23/22/20
f 24/20/18 26/23/21 27/24/22 25/21/19
f 26/23/21 21/25/23 20/26/24 27/24/22
f 22/27/17 21/28/23 26/29/21 24/30/18
f 18/31/25 43/32/26 31/33/27 30/34/28
f 17/35/29 18/31/25 30/34/28 29/36/30
f 38/37/31 32/38/32 46/39/33 37/40/34
f 36/41/35 38/37/31 37/40/34 35/42/36
f 45/43/37 46/39/33 40/44/38 41/45/39
f 38/37/31 25/21/19 27/24/22 32/38/32
f 32/38/32 27/24/22 20/26/24 34/46/40
f 18/31/25 37/40/34 46/39/33 43/32/26
f 36/41/35 23/22/20 25/21/19 38/37/31
f 17/35/29 35/42/36 37/40/34 18/31/25
f 39/47/41 42/48/42 41/45/39 40/44/38
f 46/39/33 32/38/32 39/47/41 40/44/38
f 32/38/32 34/46/40 42/48/42 39/47/41
f 19/49/43 44/50/44 31/33/27 43/32/26
f 49/51/45 33/52/46 46/39/33 45/43/37
f 33/52/46 19/49/43 43/32/26 46/39/33
f 44/50/44 48/53/47 28/54/48 31/33/27
f 19/49/43 47/55/49 48/53/47 44/50/44
f 19/49/43 33/52/46 49/51/45 47/55/49
f 30/56/28 31/57/27 28/58/48 29/59/30
f 22/60/17 23/61/20 53/62/50 52/63/51
f 52/63/51 53/62/50 55/64/52 54/65/53
f 54/65/53 55/64/52 20/26/24 21/25/23
f 22/27/17 52/66/51 54/67/53 21/28/23
f 50/68/54 56/69/55 57/70/56 64/71/57
f 17/72/29 29/73/30 56/69/55 50/68/54
f 61/74/58 60/75/59 66/76/60 58/77/61
f 36/78/35 35/79/36 60/75/59 61/74/58
f 45/43/37 41/45/39 63/80/62 66/76/60
f 61/74/58 58/77/61 55/64/52 53/62/50
f 58/77/61 34/46/40 20/26/24 55/64/52
f 50/68/54 64/71/57 66/76/60 60/75/59
f 36/78/35 61/74/58 53/62/50 23/61/20
f 17/72/29 50/68/54 60/75/59 35/79/36
f 62/81/63 63/80/62 41/45/39 42/48/42
f 66/76/60 63/80/62 62/81/63 58/77/61
f 58/77/61 62/81/63 42/48/42 34/46/40
f 51/82/64 64/71/57 57/70/56 65/83/65
f 49/51/45 45/43/37 66/76/60 59/84/66
f 59/84/66 66/76/60 64/71/57 51/82/64
f 65/83/65 57/70/56 28/54/48 48/53/47
f 51/82/64 65/83/65 48/53/47 47/55/49
f 51/82/64 47/55/49 49/51/45 59/84/66
f 56/85/55 29/59/30 28/58/48 57/86/56
